<?xml version="1.0" encoding="utf-8" standalone="no"?>
<!DOCTYPE svg PUBLIC "-//W3C//DTD SVG 1.1//EN"
  "http://www.w3.org/Graphics/SVG/1.1/DTD/svg11.dtd">
<svg xmlns:xlink="http://www.w3.org/1999/xlink" width="426.96pt" height="210.96pt" viewBox="0 0 426.96 210.96" xmlns="http://www.w3.org/2000/svg" version="1.1">
 <metadata>
  <rdf:RDF xmlns:dc="http://purl.org/dc/elements/1.1/" xmlns:cc="http://creativecommons.org/ns#" xmlns:rdf="http://www.w3.org/1999/02/22-rdf-syntax-ns#">
   <cc:Work>
    <dc:type rdf:resource="http://purl.org/dc/dcmitype/StillImage"/>
    <dc:date>2024-10-07T18:18:02.812346</dc:date>
    <dc:format>image/svg+xml</dc:format>
    <dc:creator>
     <cc:Agent>
      <dc:title>Matplotlib v3.6.2, https://matplotlib.org/</dc:title>
     </cc:Agent>
    </dc:creator>
   </cc:Work>
  </rdf:RDF>
 </metadata>
 <defs>
  <style type="text/css">*{stroke-linejoin: round; stroke-linecap: butt}</style>
 </defs>
 <g id="figure_1">
  <g id="patch_1">
   <path d="M 0 210.96 
L 426.96 210.96 
L 426.96 0 
L 0 0 
z
" style="fill: #ffffff"/>
  </g>
  <g id="axes_1">
   <g id="patch_2">
    <path d="M 105.30875 32.277625 
L 410.21625 32.277625 
L 410.21625 7.2 
L 105.30875 7.2 
z
" style="fill: #ffffff"/>
   </g>
   <g id="PolyCollection_1">
    <path d="M 119.227735 32.266864 
L 119.227735 32.277625 
L 123.702686 32.277625 
L 128.177637 32.277625 
L 132.652588 32.277625 
L 137.127539 32.277625 
L 141.60249 32.277625 
L 146.077441 32.277625 
L 150.552393 32.277625 
L 155.027344 32.277625 
L 159.502295 32.277625 
L 163.977246 32.277625 
L 168.452197 32.277625 
L 172.927148 32.277625 
L 177.402099 32.277625 
L 181.877051 32.277625 
L 186.352002 32.277625 
L 190.826953 32.277625 
L 195.301904 32.277625 
L 199.776855 32.277625 
L 204.251806 32.277625 
L 208.726757 32.277625 
L 213.201708 32.277625 
L 217.67666 32.277625 
L 222.151611 32.277625 
L 226.626562 32.277625 
L 231.101513 32.277625 
L 235.576464 32.277625 
L 240.051415 32.277625 
L 244.526366 32.277625 
L 249.001318 32.277625 
L 253.476269 32.277625 
L 257.95122 32.277625 
L 262.426171 32.277625 
L 266.901122 32.277625 
L 271.376073 32.277625 
L 275.851024 32.277625 
L 280.325975 32.277625 
L 284.800927 32.277625 
L 289.275878 32.277625 
L 293.750829 32.277625 
L 298.22578 32.277625 
L 302.700731 32.277625 
L 307.175682 32.277625 
L 311.650633 32.277625 
L 316.125585 32.277625 
L 320.600536 32.277625 
L 325.075487 32.277625 
L 329.550438 32.277625 
L 334.025389 32.277625 
L 338.50034 32.277625 
L 342.975291 32.277625 
L 347.450242 32.277625 
L 351.925194 32.277625 
L 356.400145 32.277625 
L 360.875096 32.277625 
L 365.350047 32.277625 
L 369.824998 32.277625 
L 374.299949 32.277625 
L 378.7749 32.277625 
L 383.249851 32.277625 
L 387.724803 32.277625 
L 392.199754 32.277625 
L 396.674705 32.277625 
L 401.149656 32.277625 
L 405.624607 32.277625 
L 410.099558 32.277625 
L 414.574509 32.277625 
L 419.049461 32.277625 
L 423.524412 32.277625 
L 427.999363 32.277625 
L 432.474314 32.277625 
L 436.949265 32.277625 
L 441.424216 32.277625 
L 445.899167 32.277625 
L 450.374118 32.277625 
L 454.84907 32.277625 
L 459.324021 32.277625 
L 463.798972 32.277625 
L 468.273923 32.277625 
L 472.748874 32.277625 
L 477.223825 32.277625 
L 481.698776 32.277625 
L 486.173728 32.277625 
L 490.648679 32.277625 
L 495.12363 32.277625 
L 499.598581 32.277625 
L 504.073532 32.277625 
L 508.548483 32.277625 
L 513.023434 32.277625 
L 517.498385 32.277625 
L 521.973337 32.277625 
L 526.448288 32.277625 
L 530.923239 32.277625 
L 535.39819 32.277625 
L 539.873141 32.277625 
L 544.348092 32.277625 
L 548.823043 32.277625 
L 553.297995 32.277625 
L 557.772946 32.277625 
L 562.247897 32.277625 
L 566.722848 32.277625 
L 571.197799 32.277625 
L 575.67275 32.277625 
L 580.147701 32.277625 
L 584.622652 32.277625 
L 589.097604 32.277625 
L 593.572555 32.277625 
L 598.047506 32.277625 
L 602.522457 32.277625 
L 606.997408 32.277625 
L 611.472359 32.277625 
L 615.94731 32.277625 
L 620.422261 32.277625 
L 624.897213 32.277625 
L 629.372164 32.277625 
L 633.847115 32.277625 
L 638.322066 32.277625 
L 642.797017 32.277625 
L 647.271968 32.277625 
L 651.746919 32.277625 
L 656.221871 32.277625 
L 660.696822 32.277625 
L 665.171773 32.277625 
L 669.646724 32.277625 
L 674.121675 32.277625 
L 678.596626 32.277625 
L 683.071577 32.277625 
L 687.546528 32.277625 
L 692.02148 32.277625 
L 696.496431 32.277625 
L 700.971382 32.277625 
L 705.446333 32.277625 
L 709.921284 32.277625 
L 714.396235 32.277625 
L 718.871186 32.277625 
L 723.346138 32.277625 
L 727.821089 32.277625 
L 732.29604 32.277625 
L 736.770991 32.277625 
L 741.245942 32.277625 
L 745.720893 32.277625 
L 750.195844 32.277625 
L 754.670795 32.277625 
L 759.145747 32.277625 
L 763.620698 32.277625 
L 768.095649 32.277625 
L 772.5706 32.277625 
L 777.045551 32.277625 
L 781.520502 32.277625 
L 785.995453 32.277625 
L 790.470405 32.277625 
L 794.945356 32.277625 
L 799.420307 32.277625 
L 803.895258 32.277625 
L 808.370209 32.277625 
L 812.84516 32.277625 
L 817.320111 32.277625 
L 821.795062 32.277625 
L 826.270014 32.277625 
L 830.744965 32.277625 
L 835.219916 32.277625 
L 839.694867 32.277625 
L 844.169818 32.277625 
L 848.644769 32.277625 
L 853.11972 32.277625 
L 857.594672 32.277625 
L 862.069623 32.277625 
L 866.544574 32.277625 
L 871.019525 32.277625 
L 875.494476 32.277625 
L 879.969427 32.277625 
L 884.444378 32.277625 
L 888.919329 32.277625 
L 893.394281 32.277625 
L 897.869232 32.277625 
L 902.344183 32.277625 
L 906.819134 32.277625 
L 911.294085 32.277625 
L 915.769036 32.277625 
L 920.243987 32.277625 
L 924.718938 32.277625 
L 929.19389 32.277625 
L 933.668841 32.277625 
L 938.143792 32.277625 
L 942.618743 32.277625 
L 947.093694 32.277625 
L 951.568645 32.277625 
L 956.043596 32.277625 
L 960.518548 32.277625 
L 964.993499 32.277625 
L 969.46845 32.277625 
L 973.943401 32.277625 
L 978.418352 32.277625 
L 982.893303 32.277625 
L 987.368254 32.277625 
L 991.843205 32.277625 
L 996.318157 32.277625 
L 1000.793108 32.277625 
L 1005.268059 32.277625 
L 1009.74301 32.277625 
L 1009.74301 32.277623 
L 1009.74301 32.277623 
L 1005.268059 32.277563 
L 1000.793108 32.277361 
L 996.318157 32.277318 
L 991.843205 32.277512 
L 987.368254 32.277617 
L 982.893303 32.277625 
L 978.418352 32.277625 
L 973.943401 32.277625 
L 969.46845 32.277624 
L 964.993499 32.277595 
L 960.518548 32.277445 
L 956.043596 32.277475 
L 951.568645 32.277602 
L 947.093694 32.277489 
L 942.618743 32.277207 
L 938.143792 32.277425 
L 933.668841 32.277402 
L 929.19389 32.276984 
L 924.718938 32.276816 
L 920.243987 32.276786 
L 915.769036 32.276993 
L 911.294085 32.276753 
L 906.819134 32.276672 
L 902.344183 32.27683 
L 897.869232 32.277309 
L 893.394281 32.277098 
L 888.919329 32.276258 
L 884.444378 32.276172 
L 879.969427 32.276916 
L 875.494476 32.277112 
L 871.019525 32.276572 
L 866.544574 32.276131 
L 862.069623 32.276643 
L 857.594672 32.277088 
L 853.11972 32.276719 
L 848.644769 32.276224 
L 844.169818 32.275957 
L 839.694867 32.275728 
L 835.219916 32.275617 
L 830.744965 32.274921 
L 826.270014 32.274126 
L 821.795062 32.2739 
L 817.320111 32.273729 
L 812.84516 32.272623 
L 808.370209 32.271644 
L 803.895258 32.271943 
L 799.420307 32.27197 
L 794.945356 32.271973 
L 790.470405 32.272442 
L 785.995453 32.27225 
L 781.520502 32.271979 
L 777.045551 32.2721 
L 772.5706 32.272305 
L 768.095649 32.271775 
L 763.620698 32.271575 
L 759.145747 32.271353 
L 754.670795 32.272724 
L 750.195844 32.273371 
L 745.720893 32.271749 
L 741.245942 32.270314 
L 736.770991 32.269142 
L 732.29604 32.269333 
L 727.821089 32.269889 
L 723.346138 32.267984 
L 718.871186 32.267144 
L 714.396235 32.267035 
L 709.921284 32.266661 
L 705.446333 32.266076 
L 700.971382 32.266412 
L 696.496431 32.263988 
L 692.02148 32.260805 
L 687.546528 32.260015 
L 683.071577 32.260081 
L 678.596626 32.261987 
L 674.121675 32.263829 
L 669.646724 32.263601 
L 665.171773 32.2647 
L 660.696822 32.262901 
L 656.221871 32.259755 
L 651.746919 32.260114 
L 647.271968 32.261041 
L 642.797017 32.259147 
L 638.322066 32.256395 
L 633.847115 32.255539 
L 629.372164 32.25431 
L 624.897213 32.251203 
L 620.422261 32.249551 
L 615.94731 32.249871 
L 611.472359 32.248922 
L 606.997408 32.248671 
L 602.522457 32.248517 
L 598.047506 32.249368 
L 593.572555 32.250434 
L 589.097604 32.248339 
L 584.622652 32.244219 
L 580.147701 32.24216 
L 575.67275 32.241235 
L 571.197799 32.241275 
L 566.722848 32.242838 
L 562.247897 32.243187 
L 557.772946 32.238812 
L 553.297995 32.236775 
L 548.823043 32.236233 
L 544.348092 32.233218 
L 539.873141 32.232851 
L 535.39819 32.232655 
L 530.923239 32.226415 
L 526.448288 32.221476 
L 521.973337 32.221788 
L 517.498385 32.218548 
L 513.023434 32.206422 
L 508.548483 32.198536 
L 504.073532 32.191278 
L 499.598581 32.180026 
L 495.12363 32.176596 
L 490.648679 32.171815 
L 486.173728 32.161844 
L 481.698776 32.154029 
L 477.223825 32.150751 
L 472.748874 32.149705 
L 468.273923 32.149408 
L 463.798972 32.142904 
L 459.324021 32.139287 
L 454.84907 32.136941 
L 450.374118 32.131965 
L 445.899167 32.121945 
L 441.424216 32.122285 
L 436.949265 32.113065 
L 432.474314 32.09717 
L 427.999363 32.088292 
L 423.524412 32.079617 
L 419.049461 32.063879 
L 414.574509 32.047255 
L 410.099558 32.027367 
L 405.624607 32.001343 
L 401.149656 31.971988 
L 396.674705 31.954776 
L 392.199754 31.948035 
L 387.724803 31.924666 
L 383.249851 31.910671 
L 378.7749 31.887169 
L 374.299949 31.849402 
L 369.824998 31.826612 
L 365.350047 31.795244 
L 360.875096 31.746257 
L 356.400145 31.692429 
L 351.925194 31.625647 
L 347.450242 31.549841 
L 342.975291 31.453192 
L 338.50034 31.377451 
L 334.025389 31.295796 
L 329.550438 31.178665 
L 325.075487 31.02833 
L 320.600536 30.899248 
L 316.125585 30.750632 
L 311.650633 30.557901 
L 307.175682 30.342111 
L 302.700731 30.113372 
L 298.22578 29.861612 
L 293.750829 29.613826 
L 289.275878 29.349383 
L 284.800927 29.018493 
L 280.325975 28.635853 
L 275.851024 28.250991 
L 271.376073 27.7524 
L 266.901122 27.146548 
L 262.426171 26.463571 
L 257.95122 25.715741 
L 253.476269 24.707544 
L 249.001318 23.412931 
L 244.526366 21.980828 
L 240.051415 20.529967 
L 235.576464 19.339331 
L 231.101513 18.528307 
L 226.626562 17.782772 
L 222.151611 16.908112 
L 217.67666 15.889006 
L 213.201708 14.706714 
L 208.726757 13.33886 
L 204.251806 12.196161 
L 199.776855 11.076873 
L 195.301904 9.894015 
L 190.826953 9.019282 
L 186.352002 8.545477 
L 181.877051 8.394173 
L 177.402099 8.515748 
L 172.927148 9.071174 
L 168.452197 10.005554 
L 163.977246 11.093221 
L 159.502295 13.037501 
L 155.027344 16.447122 
L 150.552393 20.53234 
L 146.077441 24.631195 
L 141.60249 27.886482 
L 137.127539 29.897893 
L 132.652588 30.828945 
L 128.177637 31.119696 
L 123.702686 31.995254 
L 119.227735 32.266864 
z
" clip-path="url(#p21f8906d14)" style="fill: #1f77b4; fill-opacity: 0.7; stroke: #1f77b4; stroke-width: 0.4"/>
   </g>
   <g id="matplotlib.axis_1">
    <g id="xtick_1">
     <g id="line2d_1"/>
    </g>
    <g id="xtick_2">
     <g id="line2d_2"/>
    </g>
    <g id="xtick_3">
     <g id="line2d_3"/>
    </g>
    <g id="xtick_4">
     <g id="line2d_4"/>
    </g>
    <g id="xtick_5">
     <g id="line2d_5"/>
    </g>
    <g id="xtick_6">
     <g id="line2d_6"/>
    </g>
    <g id="xtick_7">
     <g id="line2d_7"/>
    </g>
   </g>
   <g id="matplotlib.axis_2">
    <g id="text_1">
     <!-- Hrs_CNA -->
     <g transform="translate(33.534375 22.77725) scale(0.12 -0.12)">
      <defs>
       <path id="DejaVuSans-48" d="M 628 4666 
L 1259 4666 
L 1259 2753 
L 3553 2753 
L 3553 4666 
L 4184 4666 
L 4184 0 
L 3553 0 
L 3553 2222 
L 1259 2222 
L 1259 0 
L 628 0 
L 628 4666 
z
" transform="scale(0.015625)"/>
       <path id="DejaVuSans-72" d="M 2631 2963 
Q 2534 3019 2420 3045 
Q 2306 3072 2169 3072 
Q 1681 3072 1420 2755 
Q 1159 2438 1159 1844 
L 1159 0 
L 581 0 
L 581 3500 
L 1159 3500 
L 1159 2956 
Q 1341 3275 1631 3429 
Q 1922 3584 2338 3584 
Q 2397 3584 2469 3576 
Q 2541 3569 2628 3553 
L 2631 2963 
z
" transform="scale(0.015625)"/>
       <path id="DejaVuSans-73" d="M 2834 3397 
L 2834 2853 
Q 2591 2978 2328 3040 
Q 2066 3103 1784 3103 
Q 1356 3103 1142 2972 
Q 928 2841 928 2578 
Q 928 2378 1081 2264 
Q 1234 2150 1697 2047 
L 1894 2003 
Q 2506 1872 2764 1633 
Q 3022 1394 3022 966 
Q 3022 478 2636 193 
Q 2250 -91 1575 -91 
Q 1294 -91 989 -36 
Q 684 19 347 128 
L 347 722 
Q 666 556 975 473 
Q 1284 391 1588 391 
Q 1994 391 2212 530 
Q 2431 669 2431 922 
Q 2431 1156 2273 1281 
Q 2116 1406 1581 1522 
L 1381 1569 
Q 847 1681 609 1914 
Q 372 2147 372 2553 
Q 372 3047 722 3315 
Q 1072 3584 1716 3584 
Q 2034 3584 2315 3537 
Q 2597 3491 2834 3397 
z
" transform="scale(0.015625)"/>
       <path id="DejaVuSans-5f" d="M 3263 -1063 
L 3263 -1509 
L -63 -1509 
L -63 -1063 
L 3263 -1063 
z
" transform="scale(0.015625)"/>
       <path id="DejaVuSans-43" d="M 4122 4306 
L 4122 3641 
Q 3803 3938 3442 4084 
Q 3081 4231 2675 4231 
Q 1875 4231 1450 3742 
Q 1025 3253 1025 2328 
Q 1025 1406 1450 917 
Q 1875 428 2675 428 
Q 3081 428 3442 575 
Q 3803 722 4122 1019 
L 4122 359 
Q 3791 134 3420 21 
Q 3050 -91 2638 -91 
Q 1578 -91 968 557 
Q 359 1206 359 2328 
Q 359 3453 968 4101 
Q 1578 4750 2638 4750 
Q 3056 4750 3426 4639 
Q 3797 4528 4122 4306 
z
" transform="scale(0.015625)"/>
       <path id="DejaVuSans-4e" d="M 628 4666 
L 1478 4666 
L 3547 763 
L 3547 4666 
L 4159 4666 
L 4159 0 
L 3309 0 
L 1241 3903 
L 1241 0 
L 628 0 
L 628 4666 
z
" transform="scale(0.015625)"/>
       <path id="DejaVuSans-41" d="M 2188 4044 
L 1331 1722 
L 3047 1722 
L 2188 4044 
z
M 1831 4666 
L 2547 4666 
L 4325 0 
L 3669 0 
L 3244 1197 
L 1141 1197 
L 716 0 
L 50 0 
L 1831 4666 
z
" transform="scale(0.015625)"/>
      </defs>
      <use xlink:href="#DejaVuSans-48"/>
      <use xlink:href="#DejaVuSans-72" x="75.195312"/>
      <use xlink:href="#DejaVuSans-73" x="116.308594"/>
      <use xlink:href="#DejaVuSans-5f" x="168.408203"/>
      <use xlink:href="#DejaVuSans-43" x="218.408203"/>
      <use xlink:href="#DejaVuSans-4e" x="288.232422"/>
      <use xlink:href="#DejaVuSans-41" x="363.037109"/>
     </g>
    </g>
   </g>
   <g id="patch_3">
    <path d="M 105.30875 32.277625 
L 410.21625 32.277625 
" style="fill: none; stroke: #000000; stroke-width: 0.5; stroke-linejoin: miter; stroke-linecap: square"/>
   </g>
  </g>
  <g id="axes_2">
   <g id="patch_4">
    <path d="M 105.30875 67.07525 
L 410.21625 67.07525 
L 410.21625 41.997625 
L 105.30875 41.997625 
z
" style="fill: #ffffff"/>
   </g>
   <g id="PolyCollection_2">
    <defs>
     <path id="m3b9e373611" d="M 124.707533 -143.964759 
L 124.707533 -143.88475 
L 126.197163 -143.88475 
L 127.686794 -143.88475 
L 129.176425 -143.88475 
L 130.666055 -143.88475 
L 132.155686 -143.88475 
L 133.645317 -143.88475 
L 135.134947 -143.88475 
L 136.624578 -143.88475 
L 138.114209 -143.88475 
L 139.603839 -143.88475 
L 141.09347 -143.88475 
L 142.583101 -143.88475 
L 144.072731 -143.88475 
L 145.562362 -143.88475 
L 147.051993 -143.88475 
L 148.541623 -143.88475 
L 150.031254 -143.88475 
L 151.520885 -143.88475 
L 153.010515 -143.88475 
L 154.500146 -143.88475 
L 155.989777 -143.88475 
L 157.479407 -143.88475 
L 158.969038 -143.88475 
L 160.458669 -143.88475 
L 161.948299 -143.88475 
L 163.43793 -143.88475 
L 164.927561 -143.88475 
L 166.417191 -143.88475 
L 167.906822 -143.88475 
L 169.396453 -143.88475 
L 170.886084 -143.88475 
L 172.375714 -143.88475 
L 173.865345 -143.88475 
L 175.354976 -143.88475 
L 176.844606 -143.88475 
L 178.334237 -143.88475 
L 179.823868 -143.88475 
L 181.313498 -143.88475 
L 182.803129 -143.88475 
L 184.29276 -143.88475 
L 185.78239 -143.88475 
L 187.272021 -143.88475 
L 188.761652 -143.88475 
L 190.251282 -143.88475 
L 191.740913 -143.88475 
L 193.230544 -143.88475 
L 194.720174 -143.88475 
L 196.209805 -143.88475 
L 197.699436 -143.88475 
L 199.189066 -143.88475 
L 200.678697 -143.88475 
L 202.168328 -143.88475 
L 203.657958 -143.88475 
L 205.147589 -143.88475 
L 206.63722 -143.88475 
L 208.12685 -143.88475 
L 209.616481 -143.88475 
L 211.106112 -143.88475 
L 212.595742 -143.88475 
L 214.085373 -143.88475 
L 215.575004 -143.88475 
L 217.064634 -143.88475 
L 218.554265 -143.88475 
L 220.043896 -143.88475 
L 221.533526 -143.88475 
L 223.023157 -143.88475 
L 224.512788 -143.88475 
L 226.002418 -143.88475 
L 227.492049 -143.88475 
L 228.98168 -143.88475 
L 230.47131 -143.88475 
L 231.960941 -143.88475 
L 233.450572 -143.88475 
L 234.940202 -143.88475 
L 236.429833 -143.88475 
L 237.919464 -143.88475 
L 239.409094 -143.88475 
L 240.898725 -143.88475 
L 242.388356 -143.88475 
L 243.877986 -143.88475 
L 245.367617 -143.88475 
L 246.857248 -143.88475 
L 248.346878 -143.88475 
L 249.836509 -143.88475 
L 251.32614 -143.88475 
L 252.81577 -143.88475 
L 254.305401 -143.88475 
L 255.795032 -143.88475 
L 257.284662 -143.88475 
L 258.774293 -143.88475 
L 260.263924 -143.88475 
L 261.753554 -143.88475 
L 263.243185 -143.88475 
L 264.732816 -143.88475 
L 266.222446 -143.88475 
L 267.712077 -143.88475 
L 269.201708 -143.88475 
L 270.691339 -143.88475 
L 272.180969 -143.88475 
L 273.6706 -143.88475 
L 275.160231 -143.88475 
L 276.649861 -143.88475 
L 278.139492 -143.88475 
L 279.629123 -143.88475 
L 281.118753 -143.88475 
L 282.608384 -143.88475 
L 284.098015 -143.88475 
L 285.587645 -143.88475 
L 287.077276 -143.88475 
L 288.566907 -143.88475 
L 290.056537 -143.88475 
L 291.546168 -143.88475 
L 293.035799 -143.88475 
L 294.525429 -143.88475 
L 296.01506 -143.88475 
L 297.504691 -143.88475 
L 298.994321 -143.88475 
L 300.483952 -143.88475 
L 301.973583 -143.88475 
L 303.463213 -143.88475 
L 304.952844 -143.88475 
L 306.442475 -143.88475 
L 307.932105 -143.88475 
L 309.421736 -143.88475 
L 310.911367 -143.88475 
L 312.400997 -143.88475 
L 313.890628 -143.88475 
L 315.380259 -143.88475 
L 316.869889 -143.88475 
L 318.35952 -143.88475 
L 319.849151 -143.88475 
L 321.338781 -143.88475 
L 322.828412 -143.88475 
L 324.318043 -143.88475 
L 325.807673 -143.88475 
L 327.297304 -143.88475 
L 328.786935 -143.88475 
L 330.276565 -143.88475 
L 331.766196 -143.88475 
L 333.255827 -143.88475 
L 334.745457 -143.88475 
L 336.235088 -143.88475 
L 337.724719 -143.88475 
L 339.214349 -143.88475 
L 340.70398 -143.88475 
L 342.193611 -143.88475 
L 343.683241 -143.88475 
L 345.172872 -143.88475 
L 346.662503 -143.88475 
L 348.152133 -143.88475 
L 349.641764 -143.88475 
L 351.131395 -143.88475 
L 352.621025 -143.88475 
L 354.110656 -143.88475 
L 355.600287 -143.88475 
L 357.089917 -143.88475 
L 358.579548 -143.88475 
L 360.069179 -143.88475 
L 361.558809 -143.88475 
L 363.04844 -143.88475 
L 364.538071 -143.88475 
L 366.027701 -143.88475 
L 367.517332 -143.88475 
L 369.006963 -143.88475 
L 370.496594 -143.88475 
L 371.986224 -143.88475 
L 373.475855 -143.88475 
L 374.965486 -143.88475 
L 376.455116 -143.88475 
L 377.944747 -143.88475 
L 379.434378 -143.88475 
L 380.924008 -143.88475 
L 382.413639 -143.88475 
L 383.90327 -143.88475 
L 385.3929 -143.88475 
L 386.882531 -143.88475 
L 388.372162 -143.88475 
L 389.861792 -143.88475 
L 391.351423 -143.88475 
L 392.841054 -143.88475 
L 394.330684 -143.88475 
L 395.820315 -143.88475 
L 397.309946 -143.88475 
L 398.799576 -143.88475 
L 400.289207 -143.88475 
L 401.778838 -143.88475 
L 403.268468 -143.88475 
L 404.758099 -143.88475 
L 406.24773 -143.88475 
L 407.73736 -143.88475 
L 409.226991 -143.88475 
L 410.716622 -143.88475 
L 412.206252 -143.88475 
L 413.695883 -143.88475 
L 415.185514 -143.88475 
L 416.675144 -143.88475 
L 418.164775 -143.88475 
L 419.654406 -143.88475 
L 421.144036 -143.88475 
L 421.144036 -143.884753 
L 421.144036 -143.884753 
L 419.654406 -143.88481 
L 418.164775 -143.885133 
L 416.675144 -143.885636 
L 415.185514 -143.88563 
L 413.695883 -143.88546 
L 412.206252 -143.885518 
L 410.716622 -143.885597 
L 409.226991 -143.88564 
L 407.73736 -143.885432 
L 406.24773 -143.885129 
L 404.758099 -143.885404 
L 403.268468 -143.885887 
L 401.778838 -143.886141 
L 400.289207 -143.886263 
L 398.799576 -143.886469 
L 397.309946 -143.886527 
L 395.820315 -143.886365 
L 394.330684 -143.886472 
L 392.841054 -143.887379 
L 391.351423 -143.888306 
L 389.861792 -143.888272 
L 388.372162 -143.888387 
L 386.882531 -143.888666 
L 385.3929 -143.889032 
L 383.90327 -143.889606 
L 382.413639 -143.889763 
L 380.924008 -143.890103 
L 379.434378 -143.890913 
L 377.944747 -143.891212 
L 376.455116 -143.889683 
L 374.965486 -143.888433 
L 373.475855 -143.889256 
L 371.986224 -143.891305 
L 370.496594 -143.892533 
L 369.006963 -143.892835 
L 367.517332 -143.893581 
L 366.027701 -143.893483 
L 364.538071 -143.893746 
L 363.04844 -143.894857 
L 361.558809 -143.895792 
L 360.069179 -143.895029 
L 358.579548 -143.894139 
L 357.089917 -143.894346 
L 355.600287 -143.895429 
L 354.110656 -143.89608 
L 352.621025 -143.897452 
L 351.131395 -143.899505 
L 349.641764 -143.900604 
L 348.152133 -143.901521 
L 346.662503 -143.900854 
L 345.172872 -143.898648 
L 343.683241 -143.899081 
L 342.193611 -143.900729 
L 340.70398 -143.903223 
L 339.214349 -143.905303 
L 337.724719 -143.906185 
L 336.235088 -143.906763 
L 334.745457 -143.906926 
L 333.255827 -143.906578 
L 331.766196 -143.906736 
L 330.276565 -143.907618 
L 328.786935 -143.908072 
L 327.297304 -143.909234 
L 325.807673 -143.910177 
L 324.318043 -143.908961 
L 322.828412 -143.906188 
L 321.338781 -143.904164 
L 319.849151 -143.904514 
L 318.35952 -143.906192 
L 316.869889 -143.905728 
L 315.380259 -143.907088 
L 313.890628 -143.910284 
L 312.400997 -143.910327 
L 310.911367 -143.909431 
L 309.421736 -143.911371 
L 307.932105 -143.913113 
L 306.442475 -143.914014 
L 304.952844 -143.916513 
L 303.463213 -143.917463 
L 301.973583 -143.917477 
L 300.483952 -143.920182 
L 298.994321 -143.922678 
L 297.504691 -143.925459 
L 296.01506 -143.928949 
L 294.525429 -143.930588 
L 293.035799 -143.930867 
L 291.546168 -143.931092 
L 290.056537 -143.929719 
L 288.566907 -143.928876 
L 287.077276 -143.932012 
L 285.587645 -143.935859 
L 284.098015 -143.937014 
L 282.608384 -143.938797 
L 281.118753 -143.94245 
L 279.629123 -143.944242 
L 278.139492 -143.9489 
L 276.649861 -143.956099 
L 275.160231 -143.961456 
L 273.6706 -143.962017 
L 272.180969 -143.962589 
L 270.691339 -143.967846 
L 269.201708 -143.975212 
L 267.712077 -143.981468 
L 266.222446 -143.984196 
L 264.732816 -143.989658 
L 263.243185 -144.000743 
L 261.753554 -144.012767 
L 260.263924 -144.026534 
L 258.774293 -144.041795 
L 257.284662 -144.05782 
L 255.795032 -144.068608 
L 254.305401 -144.077047 
L 252.81577 -144.090616 
L 251.32614 -144.106523 
L 249.836509 -144.1277 
L 248.346878 -144.14705 
L 246.857248 -144.168341 
L 245.367617 -144.197527 
L 243.877986 -144.2212 
L 242.388356 -144.241413 
L 240.898725 -144.263387 
L 239.409094 -144.283714 
L 237.919464 -144.301528 
L 236.429833 -144.322202 
L 234.940202 -144.351135 
L 233.450572 -144.376374 
L 231.960941 -144.397437 
L 230.47131 -144.426058 
L 228.98168 -144.451706 
L 227.492049 -144.482847 
L 226.002418 -144.533631 
L 224.512788 -144.595695 
L 223.023157 -144.646966 
L 221.533526 -144.694387 
L 220.043896 -144.758074 
L 218.554265 -144.836879 
L 217.064634 -144.93004 
L 215.575004 -145.03446 
L 214.085373 -145.141772 
L 212.595742 -145.264222 
L 211.106112 -145.407915 
L 209.616481 -145.545918 
L 208.12685 -145.678739 
L 206.63722 -145.819478 
L 205.147589 -145.973212 
L 203.657958 -146.132454 
L 202.168328 -146.302746 
L 200.678697 -146.508624 
L 199.189066 -146.738312 
L 197.699436 -146.968798 
L 196.209805 -147.210757 
L 194.720174 -147.472338 
L 193.230544 -147.771791 
L 191.740913 -148.114694 
L 190.251282 -148.499833 
L 188.761652 -148.913238 
L 187.272021 -149.353154 
L 185.78239 -149.841698 
L 184.29276 -150.391494 
L 182.803129 -150.993953 
L 181.313498 -151.680986 
L 179.823868 -152.419012 
L 178.334237 -153.194246 
L 176.844606 -153.955885 
L 175.354976 -154.802127 
L 173.865345 -155.732343 
L 172.375714 -156.506674 
L 170.886084 -157.335048 
L 169.396453 -158.161771 
L 167.906822 -158.935557 
L 166.417191 -159.612502 
L 164.927561 -160.186726 
L 163.43793 -161.207332 
L 161.948299 -162.006852 
L 160.458669 -162.46154 
L 158.969038 -163.333267 
L 157.479407 -164.106898 
L 155.989777 -164.764518 
L 154.500146 -164.968031 
L 153.010515 -165.800333 
L 151.520885 -167.570363 
L 150.031254 -167.054667 
L 148.541623 -166.804359 
L 147.051993 -167.507603 
L 145.562362 -167.768202 
L 144.072731 -166.790851 
L 142.583101 -165.065228 
L 141.09347 -166.402646 
L 139.603839 -165.974311 
L 138.114209 -161.798661 
L 136.624578 -160.545967 
L 135.134947 -160.133126 
L 133.645317 -157.841879 
L 132.155686 -153.663174 
L 130.666055 -151.1285 
L 129.176425 -152.096233 
L 127.686794 -149.345884 
L 126.197163 -145.086344 
L 124.707533 -143.964759 
z
" style="stroke: #1f77b4; stroke-width: 0.4"/>
    </defs>
    <g clip-path="url(#p5ed2772fff)">
     <use xlink:href="#m3b9e373611" x="0" y="210.96" style="fill: #1f77b4; fill-opacity: 0.7; stroke: #1f77b4; stroke-width: 0.4"/>
    </g>
   </g>
   <g id="matplotlib.axis_3">
    <g id="xtick_8">
     <g id="line2d_8"/>
    </g>
    <g id="xtick_9">
     <g id="line2d_9"/>
    </g>
    <g id="xtick_10">
     <g id="line2d_10"/>
    </g>
    <g id="xtick_11">
     <g id="line2d_11"/>
    </g>
    <g id="xtick_12">
     <g id="line2d_12"/>
    </g>
    <g id="xtick_13">
     <g id="line2d_13"/>
    </g>
    <g id="xtick_14">
     <g id="line2d_14"/>
    </g>
   </g>
   <g id="matplotlib.axis_4">
    <g id="text_2">
     <!-- Hrs_LPN -->
     <g transform="translate(36.200625 57.513937) scale(0.12 -0.12)">
      <defs>
       <path id="DejaVuSans-4c" d="M 628 4666 
L 1259 4666 
L 1259 531 
L 3531 531 
L 3531 0 
L 628 0 
L 628 4666 
z
" transform="scale(0.015625)"/>
       <path id="DejaVuSans-50" d="M 1259 4147 
L 1259 2394 
L 2053 2394 
Q 2494 2394 2734 2622 
Q 2975 2850 2975 3272 
Q 2975 3691 2734 3919 
Q 2494 4147 2053 4147 
L 1259 4147 
z
M 628 4666 
L 2053 4666 
Q 2838 4666 3239 4311 
Q 3641 3956 3641 3272 
Q 3641 2581 3239 2228 
Q 2838 1875 2053 1875 
L 1259 1875 
L 1259 0 
L 628 0 
L 628 4666 
z
" transform="scale(0.015625)"/>
      </defs>
      <use xlink:href="#DejaVuSans-48"/>
      <use xlink:href="#DejaVuSans-72" x="75.195312"/>
      <use xlink:href="#DejaVuSans-73" x="116.308594"/>
      <use xlink:href="#DejaVuSans-5f" x="168.408203"/>
      <use xlink:href="#DejaVuSans-4c" x="218.408203"/>
      <use xlink:href="#DejaVuSans-50" x="274.121094"/>
      <use xlink:href="#DejaVuSans-4e" x="334.423828"/>
     </g>
    </g>
   </g>
   <g id="patch_5">
    <path d="M 105.30875 67.07525 
L 410.21625 67.07525 
" style="fill: none; stroke: #000000; stroke-width: 0.5; stroke-linejoin: miter; stroke-linecap: square"/>
   </g>
  </g>
  <g id="axes_3">
   <g id="patch_6">
    <path d="M 105.30875 101.872875 
L 410.21625 101.872875 
L 410.21625 76.79525 
L 105.30875 76.79525 
z
" style="fill: #ffffff"/>
   </g>
   <g id="PolyCollection_3">
    <defs>
     <path id="m67e31b6a07" d="M 127.286802 -109.466692 
L 127.286802 -109.087125 
L 128.234277 -109.087125 
L 129.181752 -109.087125 
L 130.129228 -109.087125 
L 131.076703 -109.087125 
L 132.024178 -109.087125 
L 132.971654 -109.087125 
L 133.919129 -109.087125 
L 134.866604 -109.087125 
L 135.81408 -109.087125 
L 136.761555 -109.087125 
L 137.70903 -109.087125 
L 138.656506 -109.087125 
L 139.603981 -109.087125 
L 140.551456 -109.087125 
L 141.498932 -109.087125 
L 142.446407 -109.087125 
L 143.393882 -109.087125 
L 144.341358 -109.087125 
L 145.288833 -109.087125 
L 146.236308 -109.087125 
L 147.183784 -109.087125 
L 148.131259 -109.087125 
L 149.078734 -109.087125 
L 150.02621 -109.087125 
L 150.973685 -109.087125 
L 151.92116 -109.087125 
L 152.868636 -109.087125 
L 153.816111 -109.087125 
L 154.763586 -109.087125 
L 155.711062 -109.087125 
L 156.658537 -109.087125 
L 157.606012 -109.087125 
L 158.553488 -109.087125 
L 159.500963 -109.087125 
L 160.448438 -109.087125 
L 161.395914 -109.087125 
L 162.343389 -109.087125 
L 163.290864 -109.087125 
L 164.23834 -109.087125 
L 165.185815 -109.087125 
L 166.133291 -109.087125 
L 167.080766 -109.087125 
L 168.028241 -109.087125 
L 168.975717 -109.087125 
L 169.923192 -109.087125 
L 170.870667 -109.087125 
L 171.818143 -109.087125 
L 172.765618 -109.087125 
L 173.713093 -109.087125 
L 174.660569 -109.087125 
L 175.608044 -109.087125 
L 176.555519 -109.087125 
L 177.502995 -109.087125 
L 178.45047 -109.087125 
L 179.397945 -109.087125 
L 180.345421 -109.087125 
L 181.292896 -109.087125 
L 182.240371 -109.087125 
L 183.187847 -109.087125 
L 184.135322 -109.087125 
L 185.082797 -109.087125 
L 186.030273 -109.087125 
L 186.977748 -109.087125 
L 187.925223 -109.087125 
L 188.872699 -109.087125 
L 189.820174 -109.087125 
L 190.767649 -109.087125 
L 191.715125 -109.087125 
L 192.6626 -109.087125 
L 193.610075 -109.087125 
L 194.557551 -109.087125 
L 195.505026 -109.087125 
L 196.452501 -109.087125 
L 197.399977 -109.087125 
L 198.347452 -109.087125 
L 199.294927 -109.087125 
L 200.242403 -109.087125 
L 201.189878 -109.087125 
L 202.137353 -109.087125 
L 203.084829 -109.087125 
L 204.032304 -109.087125 
L 204.97978 -109.087125 
L 205.927255 -109.087125 
L 206.87473 -109.087125 
L 207.822206 -109.087125 
L 208.769681 -109.087125 
L 209.717156 -109.087125 
L 210.664632 -109.087125 
L 211.612107 -109.087125 
L 212.559582 -109.087125 
L 213.507058 -109.087125 
L 214.454533 -109.087125 
L 215.402008 -109.087125 
L 216.349484 -109.087125 
L 217.296959 -109.087125 
L 218.244434 -109.087125 
L 219.19191 -109.087125 
L 220.139385 -109.087125 
L 221.08686 -109.087125 
L 222.034336 -109.087125 
L 222.981811 -109.087125 
L 223.929286 -109.087125 
L 224.876762 -109.087125 
L 225.824237 -109.087125 
L 226.771712 -109.087125 
L 227.719188 -109.087125 
L 228.666663 -109.087125 
L 229.614138 -109.087125 
L 230.561614 -109.087125 
L 231.509089 -109.087125 
L 232.456564 -109.087125 
L 233.40404 -109.087125 
L 234.351515 -109.087125 
L 235.29899 -109.087125 
L 236.246466 -109.087125 
L 237.193941 -109.087125 
L 238.141416 -109.087125 
L 239.088892 -109.087125 
L 240.036367 -109.087125 
L 240.983842 -109.087125 
L 241.931318 -109.087125 
L 242.878793 -109.087125 
L 243.826269 -109.087125 
L 244.773744 -109.087125 
L 245.721219 -109.087125 
L 246.668695 -109.087125 
L 247.61617 -109.087125 
L 248.563645 -109.087125 
L 249.511121 -109.087125 
L 250.458596 -109.087125 
L 251.406071 -109.087125 
L 252.353547 -109.087125 
L 253.301022 -109.087125 
L 254.248497 -109.087125 
L 255.195973 -109.087125 
L 256.143448 -109.087125 
L 257.090923 -109.087125 
L 258.038399 -109.087125 
L 258.985874 -109.087125 
L 259.933349 -109.087125 
L 260.880825 -109.087125 
L 261.8283 -109.087125 
L 262.775775 -109.087125 
L 263.723251 -109.087125 
L 264.670726 -109.087125 
L 265.618201 -109.087125 
L 266.565677 -109.087125 
L 267.513152 -109.087125 
L 268.460627 -109.087125 
L 269.408103 -109.087125 
L 270.355578 -109.087125 
L 271.303053 -109.087125 
L 272.250529 -109.087125 
L 273.198004 -109.087125 
L 274.145479 -109.087125 
L 275.092955 -109.087125 
L 276.04043 -109.087125 
L 276.987905 -109.087125 
L 277.935381 -109.087125 
L 278.882856 -109.087125 
L 279.830331 -109.087125 
L 280.777807 -109.087125 
L 281.725282 -109.087125 
L 282.672757 -109.087125 
L 283.620233 -109.087125 
L 284.567708 -109.087125 
L 285.515184 -109.087125 
L 286.462659 -109.087125 
L 287.410134 -109.087125 
L 288.35761 -109.087125 
L 289.305085 -109.087125 
L 290.25256 -109.087125 
L 291.200036 -109.087125 
L 292.147511 -109.087125 
L 293.094986 -109.087125 
L 294.042462 -109.087125 
L 294.989937 -109.087125 
L 295.937412 -109.087125 
L 296.884888 -109.087125 
L 297.832363 -109.087125 
L 298.779838 -109.087125 
L 299.727314 -109.087125 
L 300.674789 -109.087125 
L 301.622264 -109.087125 
L 302.56974 -109.087125 
L 303.517215 -109.087125 
L 304.46469 -109.087125 
L 305.412166 -109.087125 
L 306.359641 -109.087125 
L 307.307116 -109.087125 
L 308.254592 -109.087125 
L 309.202067 -109.087125 
L 310.149542 -109.087125 
L 311.097018 -109.087125 
L 312.044493 -109.087125 
L 312.991968 -109.087125 
L 313.939444 -109.087125 
L 314.886919 -109.087125 
L 315.834394 -109.087125 
L 315.834394 -109.087125 
L 315.834394 -109.087125 
L 314.886919 -109.087146 
L 313.939444 -109.087155 
L 312.991968 -109.087162 
L 312.044493 -109.087135 
L 311.097018 -109.087156 
L 310.149542 -109.087141 
L 309.202067 -109.087125 
L 308.254592 -109.087125 
L 307.307116 -109.087125 
L 306.359641 -109.087125 
L 305.412166 -109.087125 
L 304.46469 -109.087125 
L 303.517215 -109.087133 
L 302.56974 -109.087162 
L 301.622264 -109.087129 
L 300.674789 -109.087125 
L 299.727314 -109.087143 
L 298.779838 -109.087175 
L 297.832363 -109.087174 
L 296.884888 -109.087151 
L 295.937412 -109.087147 
L 294.989937 -109.087166 
L 294.042462 -109.087189 
L 293.094986 -109.087166 
L 292.147511 -109.087185 
L 291.200036 -109.087226 
L 290.25256 -109.087283 
L 289.305085 -109.087263 
L 288.35761 -109.087175 
L 287.410134 -109.087178 
L 286.462659 -109.087232 
L 285.515184 -109.087279 
L 284.567708 -109.087205 
L 283.620233 -109.087205 
L 282.672757 -109.08716 
L 281.725282 -109.0873 
L 280.777807 -109.087219 
L 279.830331 -109.087248 
L 278.882856 -109.087256 
L 277.935381 -109.087188 
L 276.987905 -109.087156 
L 276.04043 -109.087156 
L 275.092955 -109.087135 
L 274.145479 -109.08719 
L 273.198004 -109.087218 
L 272.250529 -109.087307 
L 271.303053 -109.087281 
L 270.355578 -109.087201 
L 269.408103 -109.087217 
L 268.460627 -109.087241 
L 267.513152 -109.087219 
L 266.565677 -109.087184 
L 265.618201 -109.087342 
L 264.670726 -109.087224 
L 263.723251 -109.087185 
L 262.775775 -109.08723 
L 261.8283 -109.08721 
L 260.880825 -109.087227 
L 259.933349 -109.087168 
L 258.985874 -109.087173 
L 258.038399 -109.087229 
L 257.090923 -109.087208 
L 256.143448 -109.087166 
L 255.195973 -109.087145 
L 254.248497 -109.087208 
L 253.301022 -109.087183 
L 252.353547 -109.087232 
L 251.406071 -109.087187 
L 250.458596 -109.087177 
L 249.511121 -109.087249 
L 248.563645 -109.087183 
L 247.61617 -109.08722 
L 246.668695 -109.087215 
L 245.721219 -109.087232 
L 244.773744 -109.08723 
L 243.826269 -109.087143 
L 242.878793 -109.087206 
L 241.931318 -109.087407 
L 240.983842 -109.087411 
L 240.036367 -109.087388 
L 239.088892 -109.087457 
L 238.141416 -109.08752 
L 237.193941 -109.087242 
L 236.246466 -109.087317 
L 235.29899 -109.087437 
L 234.351515 -109.087653 
L 233.40404 -109.087699 
L 232.456564 -109.087574 
L 231.509089 -109.087712 
L 230.561614 -109.087758 
L 229.614138 -109.087624 
L 228.666663 -109.087716 
L 227.719188 -109.087778 
L 226.771712 -109.087767 
L 225.824237 -109.087836 
L 224.876762 -109.087951 
L 223.929286 -109.088084 
L 222.981811 -109.088219 
L 222.034336 -109.088268 
L 221.08686 -109.088115 
L 220.139385 -109.087963 
L 219.19191 -109.08827 
L 218.244434 -109.088301 
L 217.296959 -109.08834 
L 216.349484 -109.088441 
L 215.402008 -109.088465 
L 214.454533 -109.088781 
L 213.507058 -109.08865 
L 212.559582 -109.088562 
L 211.612107 -109.088345 
L 210.664632 -109.088753 
L 209.717156 -109.089027 
L 208.769681 -109.088928 
L 207.822206 -109.088855 
L 206.87473 -109.088778 
L 205.927255 -109.088996 
L 204.97978 -109.089009 
L 204.032304 -109.088659 
L 203.084829 -109.08913 
L 202.137353 -109.089621 
L 201.189878 -109.089696 
L 200.242403 -109.08963 
L 199.294927 -109.089591 
L 198.347452 -109.089609 
L 197.399977 -109.089466 
L 196.452501 -109.089707 
L 195.505026 -109.089602 
L 194.557551 -109.0899 
L 193.610075 -109.090203 
L 192.6626 -109.091015 
L 191.715125 -109.09105 
L 190.767649 -109.090843 
L 189.820174 -109.091249 
L 188.872699 -109.092041 
L 187.925223 -109.092304 
L 186.977748 -109.093519 
L 186.030273 -109.093975 
L 185.082797 -109.095429 
L 184.135322 -109.095967 
L 183.187847 -109.097009 
L 182.240371 -109.09792 
L 181.292896 -109.098825 
L 180.345421 -109.099624 
L 179.397945 -109.102291 
L 178.45047 -109.102122 
L 177.502995 -109.104216 
L 176.555519 -109.105363 
L 175.608044 -109.107857 
L 174.660569 -109.110015 
L 173.713093 -109.112038 
L 172.765618 -109.114777 
L 171.818143 -109.116439 
L 170.870667 -109.120034 
L 169.923192 -109.126312 
L 168.975717 -109.129399 
L 168.028241 -109.131139 
L 167.080766 -109.13575 
L 166.133291 -109.138624 
L 165.185815 -109.144222 
L 164.23834 -109.149103 
L 163.290864 -109.153218 
L 162.343389 -109.161834 
L 161.395914 -109.170503 
L 160.448438 -109.176151 
L 159.500963 -109.183454 
L 158.553488 -109.195485 
L 157.606012 -109.213555 
L 156.658537 -109.22242 
L 155.711062 -109.232282 
L 154.763586 -109.260496 
L 153.816111 -109.285117 
L 152.868636 -109.286136 
L 151.92116 -109.314429 
L 150.973685 -109.403418 
L 150.02621 -109.428372 
L 149.078734 -109.395411 
L 148.131259 -109.427372 
L 147.183784 -109.554697 
L 146.236308 -109.599094 
L 145.288833 -109.598352 
L 144.341358 -109.655678 
L 143.393882 -110.00048 
L 142.446407 -109.907079 
L 141.498932 -109.689756 
L 140.551456 -109.891426 
L 139.603981 -110.317022 
L 138.656506 -109.868351 
L 137.70903 -109.718223 
L 136.761555 -110.069648 
L 135.81408 -110.489006 
L 134.866604 -110.316358 
L 133.919129 -110.35084 
L 132.971654 -110.317483 
L 132.024178 -110.410036 
L 131.076703 -109.535839 
L 130.129228 -110.009467 
L 129.181752 -132.970577 
L 128.234277 -128.27253 
L 127.286802 -109.466692 
z
" style="stroke: #1f77b4; stroke-width: 0.4"/>
    </defs>
    <g clip-path="url(#p3b47284fcd)">
     <use xlink:href="#m67e31b6a07" x="0" y="210.96" style="fill: #1f77b4; fill-opacity: 0.7; stroke: #1f77b4; stroke-width: 0.4"/>
    </g>
   </g>
   <g id="matplotlib.axis_5">
    <g id="xtick_15">
     <g id="line2d_15"/>
    </g>
    <g id="xtick_16">
     <g id="line2d_16"/>
    </g>
    <g id="xtick_17">
     <g id="line2d_17"/>
    </g>
    <g id="xtick_18">
     <g id="line2d_18"/>
    </g>
    <g id="xtick_19">
     <g id="line2d_19"/>
    </g>
    <g id="xtick_20">
     <g id="line2d_20"/>
    </g>
    <g id="xtick_21">
     <g id="line2d_21"/>
    </g>
   </g>
   <g id="matplotlib.axis_6">
    <g id="text_3">
     <!-- Hrs_MedAide -->
     <g transform="translate(7.2 92.478437) scale(0.12 -0.12)">
      <defs>
       <path id="DejaVuSans-4d" d="M 628 4666 
L 1569 4666 
L 2759 1491 
L 3956 4666 
L 4897 4666 
L 4897 0 
L 4281 0 
L 4281 4097 
L 3078 897 
L 2444 897 
L 1241 4097 
L 1241 0 
L 628 0 
L 628 4666 
z
" transform="scale(0.015625)"/>
       <path id="DejaVuSans-65" d="M 3597 1894 
L 3597 1613 
L 953 1613 
Q 991 1019 1311 708 
Q 1631 397 2203 397 
Q 2534 397 2845 478 
Q 3156 559 3463 722 
L 3463 178 
Q 3153 47 2828 -22 
Q 2503 -91 2169 -91 
Q 1331 -91 842 396 
Q 353 884 353 1716 
Q 353 2575 817 3079 
Q 1281 3584 2069 3584 
Q 2775 3584 3186 3129 
Q 3597 2675 3597 1894 
z
M 3022 2063 
Q 3016 2534 2758 2815 
Q 2500 3097 2075 3097 
Q 1594 3097 1305 2825 
Q 1016 2553 972 2059 
L 3022 2063 
z
" transform="scale(0.015625)"/>
       <path id="DejaVuSans-64" d="M 2906 2969 
L 2906 4863 
L 3481 4863 
L 3481 0 
L 2906 0 
L 2906 525 
Q 2725 213 2448 61 
Q 2172 -91 1784 -91 
Q 1150 -91 751 415 
Q 353 922 353 1747 
Q 353 2572 751 3078 
Q 1150 3584 1784 3584 
Q 2172 3584 2448 3432 
Q 2725 3281 2906 2969 
z
M 947 1747 
Q 947 1113 1208 752 
Q 1469 391 1925 391 
Q 2381 391 2643 752 
Q 2906 1113 2906 1747 
Q 2906 2381 2643 2742 
Q 2381 3103 1925 3103 
Q 1469 3103 1208 2742 
Q 947 2381 947 1747 
z
" transform="scale(0.015625)"/>
       <path id="DejaVuSans-69" d="M 603 3500 
L 1178 3500 
L 1178 0 
L 603 0 
L 603 3500 
z
M 603 4863 
L 1178 4863 
L 1178 4134 
L 603 4134 
L 603 4863 
z
" transform="scale(0.015625)"/>
      </defs>
      <use xlink:href="#DejaVuSans-48"/>
      <use xlink:href="#DejaVuSans-72" x="75.195312"/>
      <use xlink:href="#DejaVuSans-73" x="116.308594"/>
      <use xlink:href="#DejaVuSans-5f" x="168.408203"/>
      <use xlink:href="#DejaVuSans-4d" x="218.408203"/>
      <use xlink:href="#DejaVuSans-65" x="304.6875"/>
      <use xlink:href="#DejaVuSans-64" x="366.210938"/>
      <use xlink:href="#DejaVuSans-41" x="429.6875"/>
      <use xlink:href="#DejaVuSans-69" x="498.095703"/>
      <use xlink:href="#DejaVuSans-64" x="525.878906"/>
      <use xlink:href="#DejaVuSans-65" x="589.355469"/>
     </g>
    </g>
   </g>
   <g id="patch_7">
    <path d="M 105.30875 101.872875 
L 410.21625 101.872875 
" style="fill: none; stroke: #000000; stroke-width: 0.5; stroke-linejoin: miter; stroke-linecap: square"/>
   </g>
  </g>
  <g id="axes_4">
   <g id="patch_8">
    <path d="M 105.30875 136.6705 
L 410.21625 136.6705 
L 410.21625 111.592875 
L 105.30875 111.592875 
z
" style="fill: #ffffff"/>
   </g>
   <g id="PolyCollection_4">
    <defs>
     <path id="me912e3a5e6" d="M 127.664123 -74.554995 
L 127.664123 -74.2895 
L 128.740636 -74.2895 
L 129.817149 -74.2895 
L 130.893662 -74.2895 
L 131.970175 -74.2895 
L 133.046688 -74.2895 
L 134.123201 -74.2895 
L 135.199714 -74.2895 
L 136.276227 -74.2895 
L 137.35274 -74.2895 
L 138.429253 -74.2895 
L 139.505766 -74.2895 
L 140.582279 -74.2895 
L 141.658792 -74.2895 
L 142.735305 -74.2895 
L 143.811818 -74.2895 
L 144.888331 -74.2895 
L 145.964844 -74.2895 
L 147.041357 -74.2895 
L 148.11787 -74.2895 
L 149.194383 -74.2895 
L 150.270896 -74.2895 
L 151.347409 -74.2895 
L 152.423922 -74.2895 
L 153.500435 -74.2895 
L 154.576948 -74.2895 
L 155.653461 -74.2895 
L 156.729974 -74.2895 
L 157.806487 -74.2895 
L 158.883 -74.2895 
L 159.959513 -74.2895 
L 161.036026 -74.2895 
L 162.112539 -74.2895 
L 163.189052 -74.2895 
L 164.265565 -74.2895 
L 165.342078 -74.2895 
L 166.418591 -74.2895 
L 167.495104 -74.2895 
L 168.571617 -74.2895 
L 169.64813 -74.2895 
L 170.724643 -74.2895 
L 171.801156 -74.2895 
L 172.877669 -74.2895 
L 173.954182 -74.2895 
L 175.030695 -74.2895 
L 176.107207 -74.2895 
L 177.18372 -74.2895 
L 178.260233 -74.2895 
L 179.336746 -74.2895 
L 180.413259 -74.2895 
L 181.489772 -74.2895 
L 182.566285 -74.2895 
L 183.642798 -74.2895 
L 184.719311 -74.2895 
L 185.795824 -74.2895 
L 186.872337 -74.2895 
L 187.94885 -74.2895 
L 189.025363 -74.2895 
L 190.101876 -74.2895 
L 191.178389 -74.2895 
L 192.254902 -74.2895 
L 193.331415 -74.2895 
L 194.407928 -74.2895 
L 195.484441 -74.2895 
L 196.560954 -74.2895 
L 197.637467 -74.2895 
L 198.71398 -74.2895 
L 199.790493 -74.2895 
L 200.867006 -74.2895 
L 201.943519 -74.2895 
L 203.020032 -74.2895 
L 204.096545 -74.2895 
L 205.173058 -74.2895 
L 206.249571 -74.2895 
L 207.326084 -74.2895 
L 208.402597 -74.2895 
L 209.47911 -74.2895 
L 210.555623 -74.2895 
L 211.632136 -74.2895 
L 212.708649 -74.2895 
L 213.785162 -74.2895 
L 214.861675 -74.2895 
L 215.938188 -74.2895 
L 217.014701 -74.2895 
L 218.091214 -74.2895 
L 219.167727 -74.2895 
L 220.24424 -74.2895 
L 221.320753 -74.2895 
L 222.397266 -74.2895 
L 223.473779 -74.2895 
L 224.550292 -74.2895 
L 225.626805 -74.2895 
L 226.703318 -74.2895 
L 227.779831 -74.2895 
L 228.856344 -74.2895 
L 229.932857 -74.2895 
L 231.00937 -74.2895 
L 232.085883 -74.2895 
L 233.162396 -74.2895 
L 234.238909 -74.2895 
L 235.315422 -74.2895 
L 236.391935 -74.2895 
L 237.468448 -74.2895 
L 238.544961 -74.2895 
L 239.621474 -74.2895 
L 240.697987 -74.2895 
L 241.7745 -74.2895 
L 242.851013 -74.2895 
L 243.927526 -74.2895 
L 245.004039 -74.2895 
L 246.080552 -74.2895 
L 247.157065 -74.2895 
L 248.233578 -74.2895 
L 249.310091 -74.2895 
L 250.386604 -74.2895 
L 251.463117 -74.2895 
L 252.53963 -74.2895 
L 253.616143 -74.2895 
L 254.692656 -74.2895 
L 255.769169 -74.2895 
L 256.845682 -74.2895 
L 257.922195 -74.2895 
L 258.998708 -74.2895 
L 260.075221 -74.2895 
L 261.151734 -74.2895 
L 262.228247 -74.2895 
L 263.30476 -74.2895 
L 264.381273 -74.2895 
L 265.457786 -74.2895 
L 266.534299 -74.2895 
L 267.610812 -74.2895 
L 268.687325 -74.2895 
L 269.763838 -74.2895 
L 270.840351 -74.2895 
L 271.916863 -74.2895 
L 272.993376 -74.2895 
L 274.069889 -74.2895 
L 275.146402 -74.2895 
L 276.222915 -74.2895 
L 277.299428 -74.2895 
L 278.375941 -74.2895 
L 279.452454 -74.2895 
L 280.528967 -74.2895 
L 281.60548 -74.2895 
L 282.681993 -74.2895 
L 283.758506 -74.2895 
L 284.835019 -74.2895 
L 285.911532 -74.2895 
L 286.988045 -74.2895 
L 288.064558 -74.2895 
L 289.141071 -74.2895 
L 290.217584 -74.2895 
L 291.294097 -74.2895 
L 292.37061 -74.2895 
L 293.447123 -74.2895 
L 294.523636 -74.2895 
L 295.600149 -74.2895 
L 296.676662 -74.2895 
L 297.753175 -74.2895 
L 298.829688 -74.2895 
L 299.906201 -74.2895 
L 300.982714 -74.2895 
L 302.059227 -74.2895 
L 303.13574 -74.2895 
L 304.212253 -74.2895 
L 305.288766 -74.2895 
L 306.365279 -74.2895 
L 307.441792 -74.2895 
L 308.518305 -74.2895 
L 309.594818 -74.2895 
L 310.671331 -74.2895 
L 311.747844 -74.2895 
L 312.824357 -74.2895 
L 313.90087 -74.2895 
L 314.977383 -74.2895 
L 316.053896 -74.2895 
L 317.130409 -74.2895 
L 318.206922 -74.2895 
L 319.283435 -74.2895 
L 320.359948 -74.2895 
L 321.436461 -74.2895 
L 322.512974 -74.2895 
L 323.589487 -74.2895 
L 324.666 -74.2895 
L 325.742513 -74.2895 
L 326.819026 -74.2895 
L 327.895539 -74.2895 
L 328.972052 -74.2895 
L 330.048565 -74.2895 
L 331.125078 -74.2895 
L 332.201591 -74.2895 
L 333.278104 -74.2895 
L 334.354617 -74.2895 
L 335.43113 -74.2895 
L 336.507643 -74.2895 
L 337.584156 -74.2895 
L 338.660669 -74.2895 
L 339.737182 -74.2895 
L 340.813695 -74.2895 
L 341.890208 -74.2895 
L 341.890208 -74.2895 
L 341.890208 -74.2895 
L 340.813695 -74.289522 
L 339.737182 -74.2895 
L 338.660669 -74.2895 
L 337.584156 -74.2895 
L 336.507643 -74.2895 
L 335.43113 -74.2895 
L 334.354617 -74.289519 
L 333.278104 -74.289534 
L 332.201591 -74.289525 
L 331.125078 -74.289552 
L 330.048565 -74.289538 
L 328.972052 -74.289513 
L 327.895539 -74.289516 
L 326.819026 -74.289531 
L 325.742513 -74.2895 
L 324.666 -74.289505 
L 323.589487 -74.289514 
L 322.512974 -74.289524 
L 321.436461 -74.289574 
L 320.359948 -74.28953 
L 319.283435 -74.289569 
L 318.206922 -74.289518 
L 317.130409 -74.289553 
L 316.053896 -74.289533 
L 314.977383 -74.289547 
L 313.90087 -74.289543 
L 312.824357 -74.289594 
L 311.747844 -74.289581 
L 310.671331 -74.289507 
L 309.594818 -74.28954 
L 308.518305 -74.289527 
L 307.441792 -74.289511 
L 306.365279 -74.289524 
L 305.288766 -74.289559 
L 304.212253 -74.289582 
L 303.13574 -74.289524 
L 302.059227 -74.2895 
L 300.982714 -74.289522 
L 299.906201 -74.289501 
L 298.829688 -74.289524 
L 297.753175 -74.289543 
L 296.676662 -74.289541 
L 295.600149 -74.289528 
L 294.523636 -74.289548 
L 293.447123 -74.289504 
L 292.37061 -74.289545 
L 291.294097 -74.289555 
L 290.217584 -74.289502 
L 289.141071 -74.289523 
L 288.064558 -74.28952 
L 286.988045 -74.2895 
L 285.911532 -74.289536 
L 284.835019 -74.289528 
L 283.758506 -74.289563 
L 282.681993 -74.289522 
L 281.60548 -74.289517 
L 280.528967 -74.289511 
L 279.452454 -74.28952 
L 278.375941 -74.289503 
L 277.299428 -74.2895 
L 276.222915 -74.2895 
L 275.146402 -74.2895 
L 274.069889 -74.289521 
L 272.993376 -74.289501 
L 271.916863 -74.2895 
L 270.840351 -74.2895 
L 269.763838 -74.289512 
L 268.687325 -74.289504 
L 267.610812 -74.289501 
L 266.534299 -74.289521 
L 265.457786 -74.289511 
L 264.381273 -74.289505 
L 263.30476 -74.2895 
L 262.228247 -74.2895 
L 261.151734 -74.2895 
L 260.075221 -74.289511 
L 258.998708 -74.289505 
L 257.922195 -74.2895 
L 256.845682 -74.2895 
L 255.769169 -74.2895 
L 254.692656 -74.2895 
L 253.616143 -74.2895 
L 252.53963 -74.2895 
L 251.463117 -74.2895 
L 250.386604 -74.2895 
L 249.310091 -74.289524 
L 248.233578 -74.289539 
L 247.157065 -74.289516 
L 246.080552 -74.289502 
L 245.004039 -74.289521 
L 243.927526 -74.28951 
L 242.851013 -74.2895 
L 241.7745 -74.289502 
L 240.697987 -74.289516 
L 239.621474 -74.289522 
L 238.544961 -74.289524 
L 237.468448 -74.289518 
L 236.391935 -74.289518 
L 235.315422 -74.289543 
L 234.238909 -74.289528 
L 233.162396 -74.289586 
L 232.085883 -74.289579 
L 231.00937 -74.28952 
L 229.932857 -74.289554 
L 228.856344 -74.289594 
L 227.779831 -74.289563 
L 226.703318 -74.289562 
L 225.626805 -74.28959 
L 224.550292 -74.289592 
L 223.473779 -74.289606 
L 222.397266 -74.289626 
L 221.320753 -74.289615 
L 220.24424 -74.289694 
L 219.167727 -74.289708 
L 218.091214 -74.289625 
L 217.014701 -74.28969 
L 215.938188 -74.289653 
L 214.861675 -74.28975 
L 213.785162 -74.289748 
L 212.708649 -74.2898 
L 211.632136 -74.289878 
L 210.555623 -74.289903 
L 209.47911 -74.289936 
L 208.402597 -74.289998 
L 207.326084 -74.289993 
L 206.249571 -74.290057 
L 205.173058 -74.290019 
L 204.096545 -74.290036 
L 203.020032 -74.289869 
L 201.943519 -74.290095 
L 200.867006 -74.290199 
L 199.790493 -74.290406 
L 198.71398 -74.29031 
L 197.637467 -74.290151 
L 196.560954 -74.290247 
L 195.484441 -74.29028 
L 194.407928 -74.29027 
L 193.331415 -74.290579 
L 192.254902 -74.290629 
L 191.178389 -74.290553 
L 190.101876 -74.290613 
L 189.025363 -74.290815 
L 187.94885 -74.29126 
L 186.872337 -74.291012 
L 185.795824 -74.291343 
L 184.719311 -74.291732 
L 183.642798 -74.291792 
L 182.566285 -74.292338 
L 181.489772 -74.292987 
L 180.413259 -74.292348 
L 179.336746 -74.293051 
L 178.260233 -74.293566 
L 177.18372 -74.294184 
L 176.107207 -74.294093 
L 175.030695 -74.294447 
L 173.954182 -74.295727 
L 172.877669 -74.296053 
L 171.801156 -74.296456 
L 170.724643 -74.296656 
L 169.64813 -74.29819 
L 168.571617 -74.299276 
L 167.495104 -74.300169 
L 166.418591 -74.300843 
L 165.342078 -74.301606 
L 164.265565 -74.302768 
L 163.189052 -74.304071 
L 162.112539 -74.307732 
L 161.036026 -74.30791 
L 159.959513 -74.310959 
L 158.883 -74.314241 
L 157.806487 -74.315526 
L 156.729974 -74.320758 
L 155.653461 -74.319645 
L 154.576948 -74.325966 
L 153.500435 -74.333757 
L 152.423922 -74.328362 
L 151.347409 -74.344211 
L 150.270896 -74.352661 
L 149.194383 -74.346699 
L 148.11787 -74.353786 
L 147.041357 -74.375219 
L 145.964844 -74.381284 
L 144.888331 -74.379708 
L 143.811818 -74.404257 
L 142.735305 -74.437846 
L 141.658792 -74.391569 
L 140.582279 -74.423797 
L 139.505766 -74.583503 
L 138.429253 -74.4321 
L 137.35274 -74.440952 
L 136.276227 -74.692362 
L 135.199714 -74.548573 
L 134.123201 -74.692763 
L 133.046688 -74.699892 
L 131.970175 -75.068006 
L 130.893662 -74.494926 
L 129.817149 -74.764376 
L 128.740636 -98.172952 
L 127.664123 -74.554995 
z
" style="stroke: #1f77b4; stroke-width: 0.4"/>
    </defs>
    <g clip-path="url(#p503f4f35a1)">
     <use xlink:href="#me912e3a5e6" x="0" y="210.96" style="fill: #1f77b4; fill-opacity: 0.7; stroke: #1f77b4; stroke-width: 0.4"/>
    </g>
   </g>
   <g id="matplotlib.axis_7">
    <g id="xtick_22">
     <g id="line2d_22"/>
    </g>
    <g id="xtick_23">
     <g id="line2d_23"/>
    </g>
    <g id="xtick_24">
     <g id="line2d_24"/>
    </g>
    <g id="xtick_25">
     <g id="line2d_25"/>
    </g>
    <g id="xtick_26">
     <g id="line2d_26"/>
    </g>
    <g id="xtick_27">
     <g id="line2d_27"/>
    </g>
    <g id="xtick_28">
     <g id="line2d_28"/>
    </g>
   </g>
   <g id="matplotlib.axis_8">
    <g id="text_4">
     <!-- Hrs_NAtrn -->
     <g transform="translate(25.09125 127.109188) scale(0.12 -0.12)">
      <defs>
       <path id="DejaVuSans-74" d="M 1172 4494 
L 1172 3500 
L 2356 3500 
L 2356 3053 
L 1172 3053 
L 1172 1153 
Q 1172 725 1289 603 
Q 1406 481 1766 481 
L 2356 481 
L 2356 0 
L 1766 0 
Q 1100 0 847 248 
Q 594 497 594 1153 
L 594 3053 
L 172 3053 
L 172 3500 
L 594 3500 
L 594 4494 
L 1172 4494 
z
" transform="scale(0.015625)"/>
       <path id="DejaVuSans-6e" d="M 3513 2113 
L 3513 0 
L 2938 0 
L 2938 2094 
Q 2938 2591 2744 2837 
Q 2550 3084 2163 3084 
Q 1697 3084 1428 2787 
Q 1159 2491 1159 1978 
L 1159 0 
L 581 0 
L 581 3500 
L 1159 3500 
L 1159 2956 
Q 1366 3272 1645 3428 
Q 1925 3584 2291 3584 
Q 2894 3584 3203 3211 
Q 3513 2838 3513 2113 
z
" transform="scale(0.015625)"/>
      </defs>
      <use xlink:href="#DejaVuSans-48"/>
      <use xlink:href="#DejaVuSans-72" x="75.195312"/>
      <use xlink:href="#DejaVuSans-73" x="116.308594"/>
      <use xlink:href="#DejaVuSans-5f" x="168.408203"/>
      <use xlink:href="#DejaVuSans-4e" x="218.408203"/>
      <use xlink:href="#DejaVuSans-41" x="293.212891"/>
      <use xlink:href="#DejaVuSans-74" x="359.871094"/>
      <use xlink:href="#DejaVuSans-72" x="399.080078"/>
      <use xlink:href="#DejaVuSans-6e" x="438.443359"/>
     </g>
    </g>
   </g>
   <g id="patch_9">
    <path d="M 105.30875 136.6705 
L 410.21625 136.6705 
" style="fill: none; stroke: #000000; stroke-width: 0.5; stroke-linejoin: miter; stroke-linecap: square"/>
   </g>
  </g>
  <g id="axes_5">
   <g id="patch_10">
    <path d="M 105.30875 171.468125 
L 410.21625 171.468125 
L 410.21625 146.3905 
L 105.30875 146.3905 
z
" style="fill: #ffffff"/>
   </g>
   <g id="PolyCollection_5">
    <path d="M 125.854603 171.298781 
L 125.854603 171.468125 
L 128.02566 171.468125 
L 130.196717 171.468125 
L 132.367774 171.468125 
L 134.538831 171.468125 
L 136.709887 171.468125 
L 138.880944 171.468125 
L 141.052001 171.468125 
L 143.223058 171.468125 
L 145.394114 171.468125 
L 147.565171 171.468125 
L 149.736228 171.468125 
L 151.907285 171.468125 
L 154.078341 171.468125 
L 156.249398 171.468125 
L 158.420455 171.468125 
L 160.591512 171.468125 
L 162.762569 171.468125 
L 164.933625 171.468125 
L 167.104682 171.468125 
L 169.275739 171.468125 
L 171.446796 171.468125 
L 173.617852 171.468125 
L 175.788909 171.468125 
L 177.959966 171.468125 
L 180.131023 171.468125 
L 182.302079 171.468125 
L 184.473136 171.468125 
L 186.644193 171.468125 
L 188.81525 171.468125 
L 190.986307 171.468125 
L 193.157363 171.468125 
L 195.32842 171.468125 
L 197.499477 171.468125 
L 199.670534 171.468125 
L 201.84159 171.468125 
L 204.012647 171.468125 
L 206.183704 171.468125 
L 208.354761 171.468125 
L 210.525817 171.468125 
L 212.696874 171.468125 
L 214.867931 171.468125 
L 217.038988 171.468125 
L 219.210045 171.468125 
L 221.381101 171.468125 
L 223.552158 171.468125 
L 225.723215 171.468125 
L 227.894272 171.468125 
L 230.065328 171.468125 
L 232.236385 171.468125 
L 234.407442 171.468125 
L 236.578499 171.468125 
L 238.749555 171.468125 
L 240.920612 171.468125 
L 243.091669 171.468125 
L 245.262726 171.468125 
L 247.433783 171.468125 
L 249.604839 171.468125 
L 251.775896 171.468125 
L 253.946953 171.468125 
L 256.11801 171.468125 
L 258.289066 171.468125 
L 260.460123 171.468125 
L 262.63118 171.468125 
L 264.802237 171.468125 
L 266.973293 171.468125 
L 269.14435 171.468125 
L 271.315407 171.468125 
L 273.486464 171.468125 
L 275.657521 171.468125 
L 277.828577 171.468125 
L 279.999634 171.468125 
L 282.170691 171.468125 
L 284.341748 171.468125 
L 286.512804 171.468125 
L 288.683861 171.468125 
L 290.854918 171.468125 
L 293.025975 171.468125 
L 295.197031 171.468125 
L 297.368088 171.468125 
L 299.539145 171.468125 
L 301.710202 171.468125 
L 303.881259 171.468125 
L 306.052315 171.468125 
L 308.223372 171.468125 
L 310.394429 171.468125 
L 312.565486 171.468125 
L 314.736542 171.468125 
L 316.907599 171.468125 
L 319.078656 171.468125 
L 321.249713 171.468125 
L 323.420769 171.468125 
L 325.591826 171.468125 
L 327.762883 171.468125 
L 329.93394 171.468125 
L 332.104997 171.468125 
L 334.276053 171.468125 
L 336.44711 171.468125 
L 338.618167 171.468125 
L 340.789224 171.468125 
L 342.96028 171.468125 
L 345.131337 171.468125 
L 347.302394 171.468125 
L 349.473451 171.468125 
L 351.644508 171.468125 
L 353.815564 171.468125 
L 355.986621 171.468125 
L 358.157678 171.468125 
L 360.328735 171.468125 
L 362.499791 171.468125 
L 364.670848 171.468125 
L 366.841905 171.468125 
L 369.012962 171.468125 
L 371.184018 171.468125 
L 373.355075 171.468125 
L 375.526132 171.468125 
L 377.697189 171.468125 
L 379.868246 171.468125 
L 382.039302 171.468125 
L 384.210359 171.468125 
L 386.381416 171.468125 
L 388.552473 171.468125 
L 390.723529 171.468125 
L 392.894586 171.468125 
L 395.065643 171.468125 
L 397.2367 171.468125 
L 399.407756 171.468125 
L 401.578813 171.468125 
L 403.74987 171.468125 
L 405.920927 171.468125 
L 408.091984 171.468125 
L 410.26304 171.468125 
L 412.434097 171.468125 
L 414.605154 171.468125 
L 416.776211 171.468125 
L 418.947267 171.468125 
L 421.118324 171.468125 
L 423.289381 171.468125 
L 425.460438 171.468125 
L 427.631494 171.468125 
L 429.802551 171.468125 
L 431.973608 171.468125 
L 434.144665 171.468125 
L 436.315722 171.468125 
L 438.486778 171.468125 
L 440.657835 171.468125 
L 442.828892 171.468125 
L 444.999949 171.468125 
L 447.171005 171.468125 
L 449.342062 171.468125 
L 451.513119 171.468125 
L 453.684176 171.468125 
L 455.855232 171.468125 
L 458.026289 171.468125 
L 460.197346 171.468125 
L 462.368403 171.468125 
L 464.53946 171.468125 
L 466.710516 171.468125 
L 468.881573 171.468125 
L 471.05263 171.468125 
L 473.223687 171.468125 
L 475.394743 171.468125 
L 477.5658 171.468125 
L 479.736857 171.468125 
L 481.907914 171.468125 
L 484.07897 171.468125 
L 486.250027 171.468125 
L 488.421084 171.468125 
L 490.592141 171.468125 
L 492.763198 171.468125 
L 494.934254 171.468125 
L 497.105311 171.468125 
L 499.276368 171.468125 
L 501.447425 171.468125 
L 503.618481 171.468125 
L 505.789538 171.468125 
L 507.960595 171.468125 
L 510.131652 171.468125 
L 512.302708 171.468125 
L 514.473765 171.468125 
L 516.644822 171.468125 
L 518.815879 171.468125 
L 520.986936 171.468125 
L 523.157992 171.468125 
L 525.329049 171.468125 
L 527.500106 171.468125 
L 529.671163 171.468125 
L 531.842219 171.468125 
L 534.013276 171.468125 
L 536.184333 171.468125 
L 538.35539 171.468125 
L 540.526446 171.468125 
L 542.697503 171.468125 
L 544.86856 171.468125 
L 547.039617 171.468125 
L 549.210674 171.468125 
L 551.38173 171.468125 
L 553.552787 171.468125 
L 555.723844 171.468125 
L 557.894901 171.468125 
L 557.894901 171.468123 
L 557.894901 171.468123 
L 555.723844 171.468003 
L 553.552787 171.46807 
L 551.38173 171.468125 
L 549.210674 171.468108 
L 547.039617 171.467917 
L 544.86856 171.467981 
L 542.697503 171.468122 
L 540.526446 171.468114 
L 538.35539 171.467938 
L 536.184333 171.467751 
L 534.013276 171.467828 
L 531.842219 171.467851 
L 529.671163 171.467642 
L 527.500106 171.467942 
L 525.329049 171.467937 
L 523.157992 171.467822 
L 520.986936 171.467436 
L 518.815879 171.467702 
L 516.644822 171.467551 
L 514.473765 171.467555 
L 512.302708 171.467382 
L 510.131652 171.467393 
L 507.960595 171.467255 
L 505.789538 171.467525 
L 503.618481 171.467557 
L 501.447425 171.46738 
L 499.276368 171.466811 
L 497.105311 171.467305 
L 494.934254 171.467488 
L 492.763198 171.467769 
L 490.592141 171.467844 
L 488.421084 171.467548 
L 486.250027 171.467726 
L 484.07897 171.467502 
L 481.907914 171.467527 
L 479.736857 171.467391 
L 477.5658 171.467944 
L 475.394743 171.467996 
L 473.223687 171.467938 
L 471.05263 171.468039 
L 468.881573 171.467987 
L 466.710516 171.468119 
L 464.53946 171.467993 
L 462.368403 171.468078 
L 460.197346 171.468125 
L 458.026289 171.468125 
L 455.855232 171.468125 
L 453.684176 171.468125 
L 451.513119 171.468125 
L 449.342062 171.468125 
L 447.171005 171.468125 
L 444.999949 171.468125 
L 442.828892 171.468125 
L 440.657835 171.468125 
L 438.486778 171.468125 
L 436.315722 171.468125 
L 434.144665 171.468125 
L 431.973608 171.468124 
L 429.802551 171.468003 
L 427.631494 171.467909 
L 425.460438 171.468086 
L 423.289381 171.467837 
L 421.118324 171.467931 
L 418.947267 171.468026 
L 416.776211 171.467807 
L 414.605154 171.467787 
L 412.434097 171.467558 
L 410.26304 171.468073 
L 408.091984 171.4677 
L 405.920927 171.467244 
L 403.74987 171.467719 
L 401.578813 171.467745 
L 399.407756 171.467441 
L 397.2367 171.466911 
L 395.065643 171.467189 
L 392.894586 171.467489 
L 390.723529 171.467106 
L 388.552473 171.46778 
L 386.381416 171.46726 
L 384.210359 171.466874 
L 382.039302 171.466468 
L 379.868246 171.466117 
L 377.697189 171.46603 
L 375.526132 171.46569 
L 373.355075 171.465712 
L 371.184018 171.465378 
L 369.012962 171.465244 
L 366.841905 171.464705 
L 364.670848 171.465639 
L 362.499791 171.465292 
L 360.328735 171.464773 
L 358.157678 171.464663 
L 355.986621 171.464925 
L 353.815564 171.464658 
L 351.644508 171.466222 
L 349.473451 171.46584 
L 347.302394 171.464943 
L 345.131337 171.464523 
L 342.96028 171.462891 
L 340.789224 171.463275 
L 338.618167 171.462662 
L 336.44711 171.462118 
L 334.276053 171.46388 
L 332.104997 171.462549 
L 329.93394 171.462515 
L 327.762883 171.462777 
L 325.591826 171.462874 
L 323.420769 171.463384 
L 321.249713 171.461989 
L 319.078656 171.46228 
L 316.907599 171.460507 
L 314.736542 171.462686 
L 312.565486 171.462011 
L 310.394429 171.461367 
L 308.223372 171.460847 
L 306.052315 171.461038 
L 303.881259 171.45959 
L 301.710202 171.460621 
L 299.539145 171.46029 
L 297.368088 171.459895 
L 295.197031 171.458945 
L 293.025975 171.456717 
L 290.854918 171.458972 
L 288.683861 171.458986 
L 286.512804 171.458552 
L 284.341748 171.455369 
L 282.170691 171.455215 
L 279.999634 171.45558 
L 277.828577 171.454652 
L 275.657521 171.453777 
L 273.486464 171.453839 
L 271.315407 171.452876 
L 269.14435 171.451747 
L 266.973293 171.449576 
L 264.802237 171.441859 
L 262.63118 171.441371 
L 260.460123 171.441363 
L 258.289066 171.436485 
L 256.11801 171.432596 
L 253.946953 171.430004 
L 251.775896 171.430701 
L 249.604839 171.429672 
L 247.433783 171.424193 
L 245.262726 171.425053 
L 243.091669 171.419192 
L 240.920612 171.420405 
L 238.749555 171.415977 
L 236.578499 171.404225 
L 234.407442 171.40321 
L 232.236385 171.403593 
L 230.065328 171.398387 
L 227.894272 171.392496 
L 225.723215 171.390542 
L 223.552158 171.38771 
L 221.381101 171.378464 
L 219.210045 171.367132 
L 217.038988 171.356798 
L 214.867931 171.343568 
L 212.696874 171.330368 
L 210.525817 171.31682 
L 208.354761 171.299111 
L 206.183704 171.283 
L 204.012647 171.257833 
L 201.84159 171.247736 
L 199.670534 171.221634 
L 197.499477 171.192757 
L 195.32842 171.163702 
L 193.157363 171.125978 
L 190.986307 171.075857 
L 188.81525 171.003883 
L 186.644193 170.938812 
L 184.473136 170.851105 
L 182.302079 170.714005 
L 180.131023 170.566523 
L 177.959966 170.410978 
L 175.788909 170.24996 
L 173.617852 170.004922 
L 171.446796 169.731507 
L 169.275739 169.407981 
L 167.104682 168.983904 
L 164.933625 168.524137 
L 162.762569 167.864803 
L 160.591512 167.274679 
L 158.420455 166.327423 
L 156.249398 165.220667 
L 154.078341 164.275589 
L 151.907285 162.112467 
L 149.736228 161.227941 
L 147.565171 158.58407 
L 145.394114 156.092922 
L 143.223058 154.752887 
L 141.052001 149.752392 
L 138.880944 150.953641 
L 136.709887 148.753952 
L 134.538831 147.584673 
L 132.367774 149.493359 
L 130.196717 162.192097 
L 128.02566 159.705511 
L 125.854603 171.298781 
z
" clip-path="url(#pfce20582e8)" style="fill: #1f77b4; fill-opacity: 0.7; stroke: #1f77b4; stroke-width: 0.4"/>
   </g>
   <g id="matplotlib.axis_9">
    <g id="xtick_29">
     <g id="line2d_29"/>
     <g id="text_5">
      <!-- 0 -->
      <g transform="translate(125.581923 182.566563) scale(0.1 -0.1)">
       <defs>
        <path id="DejaVuSans-30" d="M 2034 4250 
Q 1547 4250 1301 3770 
Q 1056 3291 1056 2328 
Q 1056 1369 1301 889 
Q 1547 409 2034 409 
Q 2525 409 2770 889 
Q 3016 1369 3016 2328 
Q 3016 3291 2770 3770 
Q 2525 4250 2034 4250 
z
M 2034 4750 
Q 2819 4750 3233 4129 
Q 3647 3509 3647 2328 
Q 3647 1150 3233 529 
Q 2819 -91 2034 -91 
Q 1250 -91 836 529 
Q 422 1150 422 2328 
Q 422 3509 836 4129 
Q 1250 4750 2034 4750 
z
" transform="scale(0.015625)"/>
       </defs>
       <use xlink:href="#DejaVuSans-30"/>
      </g>
     </g>
    </g>
    <g id="xtick_30">
     <g id="line2d_30"/>
     <g id="text_6">
      <!-- 100 -->
      <g transform="translate(166.128269 182.566563) scale(0.1 -0.1)">
       <defs>
        <path id="DejaVuSans-31" d="M 794 531 
L 1825 531 
L 1825 4091 
L 703 3866 
L 703 4441 
L 1819 4666 
L 2450 4666 
L 2450 531 
L 3481 531 
L 3481 0 
L 794 0 
L 794 531 
z
" transform="scale(0.015625)"/>
       </defs>
       <use xlink:href="#DejaVuSans-31"/>
       <use xlink:href="#DejaVuSans-30" x="63.623047"/>
       <use xlink:href="#DejaVuSans-30" x="127.246094"/>
      </g>
     </g>
    </g>
    <g id="xtick_31">
     <g id="line2d_31"/>
     <g id="text_7">
      <!-- 200 -->
      <g transform="translate(213.037115 182.566563) scale(0.1 -0.1)">
       <defs>
        <path id="DejaVuSans-32" d="M 1228 531 
L 3431 531 
L 3431 0 
L 469 0 
L 469 531 
Q 828 903 1448 1529 
Q 2069 2156 2228 2338 
Q 2531 2678 2651 2914 
Q 2772 3150 2772 3378 
Q 2772 3750 2511 3984 
Q 2250 4219 1831 4219 
Q 1534 4219 1204 4116 
Q 875 4013 500 3803 
L 500 4441 
Q 881 4594 1212 4672 
Q 1544 4750 1819 4750 
Q 2544 4750 2975 4387 
Q 3406 4025 3406 3419 
Q 3406 3131 3298 2873 
Q 3191 2616 2906 2266 
Q 2828 2175 2409 1742 
Q 1991 1309 1228 531 
z
" transform="scale(0.015625)"/>
       </defs>
       <use xlink:href="#DejaVuSans-32"/>
       <use xlink:href="#DejaVuSans-30" x="63.623047"/>
       <use xlink:href="#DejaVuSans-30" x="127.246094"/>
      </g>
     </g>
    </g>
    <g id="xtick_32">
     <g id="line2d_32"/>
     <g id="text_8">
      <!-- 300 -->
      <g transform="translate(259.945962 182.566563) scale(0.1 -0.1)">
       <defs>
        <path id="DejaVuSans-33" d="M 2597 2516 
Q 3050 2419 3304 2112 
Q 3559 1806 3559 1356 
Q 3559 666 3084 287 
Q 2609 -91 1734 -91 
Q 1441 -91 1130 -33 
Q 819 25 488 141 
L 488 750 
Q 750 597 1062 519 
Q 1375 441 1716 441 
Q 2309 441 2620 675 
Q 2931 909 2931 1356 
Q 2931 1769 2642 2001 
Q 2353 2234 1838 2234 
L 1294 2234 
L 1294 2753 
L 1863 2753 
Q 2328 2753 2575 2939 
Q 2822 3125 2822 3475 
Q 2822 3834 2567 4026 
Q 2313 4219 1838 4219 
Q 1578 4219 1281 4162 
Q 984 4106 628 3988 
L 628 4550 
Q 988 4650 1302 4700 
Q 1616 4750 1894 4750 
Q 2613 4750 3031 4423 
Q 3450 4097 3450 3541 
Q 3450 3153 3228 2886 
Q 3006 2619 2597 2516 
z
" transform="scale(0.015625)"/>
       </defs>
       <use xlink:href="#DejaVuSans-33"/>
       <use xlink:href="#DejaVuSans-30" x="63.623047"/>
       <use xlink:href="#DejaVuSans-30" x="127.246094"/>
      </g>
     </g>
    </g>
    <g id="xtick_33">
     <g id="line2d_33"/>
     <g id="text_9">
      <!-- 400 -->
      <g transform="translate(306.854808 182.566563) scale(0.1 -0.1)">
       <defs>
        <path id="DejaVuSans-34" d="M 2419 4116 
L 825 1625 
L 2419 1625 
L 2419 4116 
z
M 2253 4666 
L 3047 4666 
L 3047 1625 
L 3713 1625 
L 3713 1100 
L 3047 1100 
L 3047 0 
L 2419 0 
L 2419 1100 
L 313 1100 
L 313 1709 
L 2253 4666 
z
" transform="scale(0.015625)"/>
       </defs>
       <use xlink:href="#DejaVuSans-34"/>
       <use xlink:href="#DejaVuSans-30" x="63.623047"/>
       <use xlink:href="#DejaVuSans-30" x="127.246094"/>
      </g>
     </g>
    </g>
    <g id="xtick_34">
     <g id="line2d_34"/>
     <g id="text_10">
      <!-- 500 -->
      <g transform="translate(353.763654 182.566563) scale(0.1 -0.1)">
       <defs>
        <path id="DejaVuSans-35" d="M 691 4666 
L 3169 4666 
L 3169 4134 
L 1269 4134 
L 1269 2991 
Q 1406 3038 1543 3061 
Q 1681 3084 1819 3084 
Q 2600 3084 3056 2656 
Q 3513 2228 3513 1497 
Q 3513 744 3044 326 
Q 2575 -91 1722 -91 
Q 1428 -91 1123 -41 
Q 819 9 494 109 
L 494 744 
Q 775 591 1075 516 
Q 1375 441 1709 441 
Q 2250 441 2565 725 
Q 2881 1009 2881 1497 
Q 2881 1984 2565 2268 
Q 2250 2553 1709 2553 
Q 1456 2553 1204 2497 
Q 953 2441 691 2322 
L 691 4666 
z
" transform="scale(0.015625)"/>
       </defs>
       <use xlink:href="#DejaVuSans-35"/>
       <use xlink:href="#DejaVuSans-30" x="63.623047"/>
       <use xlink:href="#DejaVuSans-30" x="127.246094"/>
      </g>
     </g>
    </g>
    <g id="xtick_35">
     <g id="line2d_35"/>
     <g id="text_11">
      <!-- 600 -->
      <g transform="translate(400.6725 182.566563) scale(0.1 -0.1)">
       <defs>
        <path id="DejaVuSans-36" d="M 2113 2584 
Q 1688 2584 1439 2293 
Q 1191 2003 1191 1497 
Q 1191 994 1439 701 
Q 1688 409 2113 409 
Q 2538 409 2786 701 
Q 3034 994 3034 1497 
Q 3034 2003 2786 2293 
Q 2538 2584 2113 2584 
z
M 3366 4563 
L 3366 3988 
Q 3128 4100 2886 4159 
Q 2644 4219 2406 4219 
Q 1781 4219 1451 3797 
Q 1122 3375 1075 2522 
Q 1259 2794 1537 2939 
Q 1816 3084 2150 3084 
Q 2853 3084 3261 2657 
Q 3669 2231 3669 1497 
Q 3669 778 3244 343 
Q 2819 -91 2113 -91 
Q 1303 -91 875 529 
Q 447 1150 447 2328 
Q 447 3434 972 4092 
Q 1497 4750 2381 4750 
Q 2619 4750 2861 4703 
Q 3103 4656 3366 4563 
z
" transform="scale(0.015625)"/>
       </defs>
       <use xlink:href="#DejaVuSans-36"/>
       <use xlink:href="#DejaVuSans-30" x="63.623047"/>
       <use xlink:href="#DejaVuSans-30" x="127.246094"/>
      </g>
     </g>
    </g>
    <g id="text_12">
     <!-- Hours -->
     <g transform="translate(240.184375 201.264375) scale(0.12 -0.12)">
      <defs>
       <path id="DejaVuSans-6f" d="M 1959 3097 
Q 1497 3097 1228 2736 
Q 959 2375 959 1747 
Q 959 1119 1226 758 
Q 1494 397 1959 397 
Q 2419 397 2687 759 
Q 2956 1122 2956 1747 
Q 2956 2369 2687 2733 
Q 2419 3097 1959 3097 
z
M 1959 3584 
Q 2709 3584 3137 3096 
Q 3566 2609 3566 1747 
Q 3566 888 3137 398 
Q 2709 -91 1959 -91 
Q 1206 -91 779 398 
Q 353 888 353 1747 
Q 353 2609 779 3096 
Q 1206 3584 1959 3584 
z
" transform="scale(0.015625)"/>
       <path id="DejaVuSans-75" d="M 544 1381 
L 544 3500 
L 1119 3500 
L 1119 1403 
Q 1119 906 1312 657 
Q 1506 409 1894 409 
Q 2359 409 2629 706 
Q 2900 1003 2900 1516 
L 2900 3500 
L 3475 3500 
L 3475 0 
L 2900 0 
L 2900 538 
Q 2691 219 2414 64 
Q 2138 -91 1772 -91 
Q 1169 -91 856 284 
Q 544 659 544 1381 
z
M 1991 3584 
L 1991 3584 
z
" transform="scale(0.015625)"/>
      </defs>
      <use xlink:href="#DejaVuSans-48"/>
      <use xlink:href="#DejaVuSans-6f" x="75.195312"/>
      <use xlink:href="#DejaVuSans-75" x="136.376953"/>
      <use xlink:href="#DejaVuSans-72" x="199.755859"/>
      <use xlink:href="#DejaVuSans-73" x="240.869141"/>
     </g>
    </g>
   </g>
   <g id="matplotlib.axis_10">
    <g id="text_13">
     <!-- Hrs_RN -->
     <g transform="translate(41.784375 161.906813) scale(0.12 -0.12)">
      <defs>
       <path id="DejaVuSans-52" d="M 2841 2188 
Q 3044 2119 3236 1894 
Q 3428 1669 3622 1275 
L 4263 0 
L 3584 0 
L 2988 1197 
Q 2756 1666 2539 1819 
Q 2322 1972 1947 1972 
L 1259 1972 
L 1259 0 
L 628 0 
L 628 4666 
L 2053 4666 
Q 2853 4666 3247 4331 
Q 3641 3997 3641 3322 
Q 3641 2881 3436 2590 
Q 3231 2300 2841 2188 
z
M 1259 4147 
L 1259 2491 
L 2053 2491 
Q 2509 2491 2742 2702 
Q 2975 2913 2975 3322 
Q 2975 3731 2742 3939 
Q 2509 4147 2053 4147 
L 1259 4147 
z
" transform="scale(0.015625)"/>
      </defs>
      <use xlink:href="#DejaVuSans-48"/>
      <use xlink:href="#DejaVuSans-72" x="75.195312"/>
      <use xlink:href="#DejaVuSans-73" x="116.308594"/>
      <use xlink:href="#DejaVuSans-5f" x="168.408203"/>
      <use xlink:href="#DejaVuSans-52" x="218.408203"/>
      <use xlink:href="#DejaVuSans-4e" x="287.890625"/>
     </g>
    </g>
   </g>
   <g id="patch_11">
    <path d="M 105.30875 171.468125 
L 410.21625 171.468125 
" style="fill: none; stroke: #000000; stroke-width: 0.5; stroke-linejoin: miter; stroke-linecap: square"/>
   </g>
  </g>
 </g>
 <defs>
  <clipPath id="p21f8906d14">
   <rect x="105.30875" y="7.2" width="304.9075" height="25.077625"/>
  </clipPath>
  <clipPath id="p5ed2772fff">
   <rect x="105.30875" y="41.997625" width="304.9075" height="25.077625"/>
  </clipPath>
  <clipPath id="p3b47284fcd">
   <rect x="105.30875" y="76.79525" width="304.9075" height="25.077625"/>
  </clipPath>
  <clipPath id="p503f4f35a1">
   <rect x="105.30875" y="111.592875" width="304.9075" height="25.077625"/>
  </clipPath>
  <clipPath id="pfce20582e8">
   <rect x="105.30875" y="146.3905" width="304.9075" height="25.077625"/>
  </clipPath>
 </defs>
</svg>
